<svg width="36" height="36" viewBox="0 0 36 36" fill="none" xmlns="http://www.w3.org/2000/svg">
<g id="Money">
<path id="Vector" d="M18 12.375C16.8875 12.375 15.7999 12.7049 14.8749 13.323C13.9499 13.9411 13.2289 14.8196 12.8032 15.8474C12.3774 16.8752 12.266 18.0062 12.4831 19.0974C12.7001 20.1885 13.2359 21.1908 14.0225 21.9775C14.8092 22.7641 15.8115 23.2999 16.9026 23.5169C17.9938 23.734 19.1248 23.6226 20.1526 23.1968C21.1804 22.7711 22.0589 22.0501 22.677 21.1251C23.2951 20.2001 23.625 19.1125 23.625 18C23.625 16.5082 23.0324 15.0774 21.9775 14.0225C20.9226 12.9676 19.4918 12.375 18 12.375ZM18 21.375C17.3325 21.375 16.68 21.1771 16.125 20.8062C15.5699 20.4354 15.1374 19.9083 14.8819 19.2916C14.6265 18.6749 14.5596 17.9963 14.6898 17.3416C14.8201 16.6869 15.1415 16.0855 15.6135 15.6135C16.0855 15.1415 16.6869 14.8201 17.3416 14.6898C17.9963 14.5596 18.6749 14.6265 19.2916 14.8819C19.9083 15.1374 20.4354 15.5699 20.8062 16.125C21.1771 16.68 21.375 17.3325 21.375 18C21.375 18.8951 21.0194 19.7536 20.3865 20.3865C19.7536 21.0194 18.8951 21.375 18 21.375ZM33.75 7.875H2.25C1.95163 7.875 1.66548 7.99353 1.4545 8.20451C1.24353 8.41548 1.125 8.70163 1.125 9V27C1.125 27.2984 1.24353 27.5845 1.4545 27.7955C1.66548 28.0065 1.95163 28.125 2.25 28.125H33.75C34.0484 28.125 34.3345 28.0065 34.5455 27.7955C34.7565 27.5845 34.875 27.2984 34.875 27V9C34.875 8.70163 34.7565 8.41548 34.5455 8.20451C34.3345 7.99353 34.0484 7.875 33.75 7.875ZM27.232 25.875H8.76797C8.39026 24.5976 7.69895 23.4349 6.75701 22.493C5.81507 21.5511 4.65243 20.8597 3.375 20.482V15.518C4.65243 15.1403 5.81507 14.4489 6.75701 13.507C7.69895 12.5651 8.39026 11.4024 8.76797 10.125H27.232C27.6097 11.4024 28.3011 12.5651 29.243 13.507C30.1849 14.4489 31.3476 15.1403 32.625 15.518V20.482C31.3476 20.8597 30.1849 21.5511 29.243 22.493C28.3011 23.4349 27.6097 24.5976 27.232 25.875ZM32.625 13.1302C31.2756 12.5499 30.2001 11.4744 29.6198 10.125H32.625V13.1302ZM6.38016 10.125C5.79993 11.4744 4.72438 12.5499 3.375 13.1302V10.125H6.38016ZM3.375 22.8698C4.72438 23.4501 5.79993 24.5256 6.38016 25.875H3.375V22.8698ZM29.6198 25.875C30.2001 24.5256 31.2756 23.4501 32.625 22.8698V25.875H29.6198Z" fill="#FAEEE6"/>
</g>
</svg>
