<svg width="36" height="36" viewBox="0 0 36 36" fill="none" xmlns="http://www.w3.org/2000/svg">
<g id="Leaf">
<path id="Vector" d="M31.4227 5.63488C31.4066 5.35966 31.29 5.09992 31.0951 4.90498C30.9001 4.71003 30.6404 4.59346 30.3652 4.57738C19.6594 3.94879 11.0841 7.17192 7.42781 13.2188C6.16045 15.2873 5.53592 17.6855 5.63344 20.1094C5.71359 22.3482 6.36609 24.6094 7.57266 26.8383L4.82906 29.5805C4.61797 29.7916 4.49937 30.0779 4.49937 30.3764C4.49937 30.675 4.61797 30.9613 4.82906 31.1724C5.04016 31.3835 5.32647 31.5021 5.625 31.5021C5.92353 31.5021 6.20984 31.3835 6.42094 31.1724L9.16313 28.4288C11.3906 29.6339 13.6533 30.2864 15.8906 30.3666C16.0472 30.3722 16.2033 30.375 16.3589 30.375C18.6254 30.3811 20.849 29.7569 22.7812 28.5722C28.8281 24.916 32.0527 16.3421 31.4227 5.63488ZM21.6211 26.6485C18.4219 28.5863 14.6348 28.6172 10.8337 26.7568L23.2973 14.2946C23.4019 14.19 23.4848 14.066 23.5414 13.9294C23.5979 13.7928 23.627 13.6465 23.627 13.4986C23.627 13.3508 23.5979 13.2044 23.5414 13.0679C23.4848 12.9313 23.4019 12.8072 23.2973 12.7027C23.1928 12.5982 23.0687 12.5153 22.9322 12.4587C22.7956 12.4021 22.6492 12.373 22.5014 12.373C22.3536 12.373 22.2072 12.4021 22.0706 12.4587C21.9341 12.5153 21.81 12.5982 21.7055 12.7027L9.24328 25.1719C7.38844 21.375 7.41516 17.5782 9.35156 14.3846C12.458 9.25598 19.8422 6.4477 29.2233 6.78238C29.5594 16.1564 26.7497 23.5421 21.6211 26.6485Z" fill="#FAEEE6"/>
</g>
</svg>
