<svg width="36" height="36" viewBox="0 0 36 36" fill="none" xmlns="http://www.w3.org/2000/svg">
<g id="Tree">
<path id="Vector" d="M27.8579 8.80312C27.044 6.86003 25.6741 5.20078 23.9202 4.03384C22.1663 2.8669 20.1067 2.24432 18 2.24432C15.8934 2.24432 13.8338 2.8669 12.0799 4.03384C10.326 5.20078 8.95604 6.86003 8.14223 8.80312C6.39083 9.61417 4.9066 10.9072 3.86315 12.5309C2.8197 14.1546 2.26018 16.0418 2.25004 17.9719C2.23457 23.4309 6.66004 27.9844 12.1135 28.125C13.7632 28.168 15.3982 27.8054 16.875 27.0689V32.625C16.875 32.9234 16.9936 33.2095 17.2045 33.4205C17.4155 33.6315 17.7017 33.75 18 33.75C18.2984 33.75 18.5846 33.6315 18.7955 33.4205C19.0065 33.2095 19.125 32.9234 19.125 32.625V27.0689C20.5226 27.7659 22.0634 28.1275 23.625 28.125H23.8866C29.34 27.9844 33.7655 23.4337 33.75 17.9747C33.7406 16.0441 33.1814 14.1562 32.1379 12.5319C31.0944 10.9076 29.6098 9.61423 27.8579 8.80312ZM23.8289 25.875C22.2042 25.9203 20.6058 25.4583 19.2558 24.5531C19.2118 24.525 19.1682 24.4983 19.125 24.473V18.6947L25.2535 15.6319C25.3857 15.5658 25.5036 15.4743 25.6005 15.3626C25.6973 15.2509 25.7712 15.1212 25.818 14.981C25.8647 14.8407 25.8834 14.6927 25.8729 14.5452C25.8624 14.3977 25.823 14.2538 25.7569 14.1216C25.6908 13.9893 25.5993 13.8714 25.4876 13.7746C25.3759 13.6777 25.2463 13.6038 25.106 13.557C24.9658 13.5103 24.8177 13.4916 24.6702 13.5021C24.5228 13.5126 24.3788 13.552 24.2466 13.6181L19.125 16.1803V12.375C19.125 12.0766 19.0065 11.7905 18.7955 11.5795C18.5846 11.3685 18.2984 11.25 18 11.25C17.7017 11.25 17.4155 11.3685 17.2045 11.5795C16.9936 11.7905 16.875 12.0766 16.875 12.375V19.5553L11.7535 16.9931C11.4864 16.8596 11.1773 16.8376 10.8941 16.932C10.6108 17.0265 10.3767 17.2295 10.2432 17.4966C10.1096 17.7636 10.0877 18.0727 10.1821 18.356C10.2765 18.6392 10.4796 18.8734 10.7466 19.0069L16.875 22.0697V24.4687C16.831 24.4941 16.7874 24.5208 16.7443 24.5489C15.3944 25.4548 13.7962 25.9182 12.1711 25.875C10.3925 25.8306 8.68141 25.1852 7.31649 24.044C5.95157 22.9028 5.01331 21.333 4.65455 19.5904C4.29579 17.8478 4.53768 16.0351 5.34081 14.4476C6.14394 12.86 7.46099 11.5912 9.07738 10.8478C9.5886 10.6136 9.9928 10.1953 10.2094 9.6764C10.8516 8.14171 11.9331 6.8311 13.318 5.90933C14.7029 4.98755 16.3294 4.49575 17.993 4.49575C19.6566 4.49575 21.2831 4.98755 22.668 5.90933C24.0529 6.8311 25.1345 8.14171 25.7766 9.6764C25.9932 10.1953 26.3974 10.6136 26.9086 10.8478C28.525 11.5912 29.8421 12.86 30.6452 14.4476C31.4483 16.0351 31.6902 17.8478 31.3315 19.5904C30.9727 21.333 30.0344 22.9028 28.6695 24.044C27.3046 25.1852 25.5935 25.8306 23.8149 25.875H23.8289Z" fill="white"/>
</g>
</svg>
