<svg width="36" height="36" viewBox="0 0 36 36" fill="none" xmlns="http://www.w3.org/2000/svg">
<g id="Group">
<path id="Path" d="M3 30C7.14214 25.8579 13.8579 25.8579 18 30" stroke="white" stroke-width="1.5" stroke-linecap="round" stroke-linejoin="round"/>
<path id="Path_2" d="M9.01465 22.5V26.9975" stroke="white" stroke-width="1.5" stroke-linecap="round" stroke-linejoin="round"/>
<path id="Path_3" fill-rule="evenodd" clip-rule="evenodd" d="M8.48428 10.6411L4.73579 14.3896C4.5213 14.6041 4.45714 14.9266 4.57323 15.2069C4.68931 15.4871 4.96277 15.6699 5.26611 15.6699H12.7631C13.0664 15.6699 13.3399 15.4871 13.456 15.2069C13.5721 14.9266 13.5079 14.6041 13.2934 14.3896L9.54494 10.6411C9.25204 10.3482 8.77718 10.3482 8.48428 10.6411Z" stroke="white" stroke-width="1.5" stroke-linecap="round" stroke-linejoin="round"/>
<path id="Path_4" d="M31.5 24V6H27V8.5" stroke="white" stroke-width="1.5" stroke-linecap="round" stroke-linejoin="round"/>
<path id="Path_5" d="M21.75 24V18H26.25V24" stroke="white" stroke-width="1.5" stroke-linecap="round" stroke-linejoin="round"/>
<path id="Path_6" d="M33 24H19.5" stroke="white" stroke-width="1.5" stroke-linecap="round" stroke-linejoin="round"/>
<path id="Path_7" d="M18 10.9995L24 6L33 13.5" stroke="white" stroke-width="1.5" stroke-linecap="round" stroke-linejoin="round"/>
<path id="Path_8" d="M7.60262 15.6698L3.25844 20.8118C3.00065 21.1169 2.94334 21.5438 3.11155 21.9061C3.27975 22.2684 3.6429 22.5001 4.04231 22.5H13.9863C14.3857 22.5 14.7487 22.2682 14.9169 21.906C15.085 21.5438 15.0277 21.1169 14.77 20.8119L10.4258 15.6699" stroke="white" stroke-width="1.5" stroke-linecap="round" stroke-linejoin="round"/>
</g>
</svg>
