<svg width="36" height="36" viewBox="0 0 36 36" fill="none" xmlns="http://www.w3.org/2000/svg">
<g id="Group">
<g id="Group_2">
<path id="Path" d="M18 4.5C25.473 4.5 31.5 10.527 31.5 18C31.5 25.473 25.473 31.5 18 31.5" stroke="white" stroke-width="1.5" stroke-linecap="round" stroke-linejoin="round"/>
<path id="Path_2" d="M18 31.5C10.527 31.5 4.5 25.473 4.5 18C4.5 10.527 10.527 4.5 18 4.5" stroke="white" stroke-width="1.5" stroke-linecap="round" stroke-linejoin="round"/>
<path id="Path_3" fill-rule="evenodd" clip-rule="evenodd" d="M15.2522 6.08999C10.9172 13.3275 10.9172 22.674 15.2522 29.9115C16.5212 32.031 19.4807 32.031 20.7497 29.9115C25.0847 22.674 25.0847 13.3275 20.7497 6.08999C19.4792 3.97049 16.5212 3.97049 15.2522 6.08999Z" stroke="white" stroke-width="1.5" stroke-linecap="round" stroke-linejoin="round"/>
<path id="Path_4" d="M6.01514 11.787C13.3531 14.0535 22.6471 14.0535 29.9836 11.787" stroke="white" stroke-width="1.5" stroke-linecap="round" stroke-linejoin="round"/>
<path id="Path_5" d="M29.9851 24.2131C22.6471 21.9466 13.3531 21.9466 6.0166 24.2131" stroke="white" stroke-width="1.5" stroke-linecap="round" stroke-linejoin="round"/>
</g>
</g>
</svg>
