<svg width="36" height="36" viewBox="0 0 36 36" fill="none" xmlns="http://www.w3.org/2000/svg">
<g id="Group">
<path id="Path" d="M23.25 8.9982V4.5" stroke="#FAEEE6" stroke-width="1.5" stroke-linecap="round" stroke-linejoin="round"/>
<path id="Path_2" d="M27.75 4.5H23.25" stroke="#FAEEE6" stroke-width="1.5" stroke-linecap="round" stroke-linejoin="round"/>
<path id="Path_3" d="M4.5 18C4.50174 24.7628 9.50712 30.4808 16.2102 31.3774C22.9133 32.274 29.2455 28.0725 31.0245 21.5479C32.8035 15.0234 29.4804 8.18917 23.25 5.5592" stroke="#FAEEE6" stroke-width="1.5" stroke-linecap="round" stroke-linejoin="round"/>
<path id="Path_4" d="M15.6969 4.44703L15.697 4.44691C15.7263 4.42093 15.7712 4.42361 15.7972 4.4529C15.8232 4.48219 15.8205 4.52701 15.7912 4.55303C15.762 4.57905 15.7172 4.57643 15.6911 4.54717C15.6651 4.51791 15.6677 4.47309 15.6969 4.44703" stroke="#FAEEE6" stroke-width="1.5" stroke-linecap="round" stroke-linejoin="round"/>
<path id="Path_5" d="M9.69691 6.69703L9.69704 6.69691C9.72635 6.67093 9.77117 6.67361 9.79717 6.7029C9.82317 6.73219 9.82052 6.77701 9.79125 6.80303C9.76197 6.82905 9.71715 6.82643 9.69111 6.79717C9.66507 6.76791 9.66767 6.72309 9.69691 6.69703" stroke="#FAEEE6" stroke-width="1.5" stroke-linecap="round" stroke-linejoin="round"/>
<path id="Path_6" d="M5.19691 11.947L5.19704 11.9469C5.22635 11.9209 5.27117 11.9236 5.29717 11.9529C5.32317 11.9822 5.32052 12.027 5.29125 12.053C5.26197 12.079 5.21715 12.0764 5.19111 12.0472C5.16507 12.0179 5.16767 11.9731 5.19691 11.947" stroke="#FAEEE6" stroke-width="1.5" stroke-linecap="round" stroke-linejoin="round"/>
<path id="a1080z" fill-rule="evenodd" clip-rule="evenodd" d="M17.5203 10.828C17.7059 10.5566 18.0467 10.4377 18.3609 10.5349C18.675 10.632 18.8892 10.9226 18.8892 11.2514V16.118H23.2488C23.527 16.1181 23.7823 16.272 23.9121 16.5181C24.0419 16.7641 24.0249 17.0618 23.8678 17.2915L18.4797 25.1719C18.2941 25.4434 17.9533 25.5623 17.6391 25.4651C17.325 25.3679 17.1108 25.0774 17.1108 24.7486V19.8819H12.7512C12.473 19.8819 12.2177 19.7279 12.0879 19.4819C11.9581 19.2358 11.9751 18.9381 12.1322 18.7085L17.5203 10.828Z" stroke="#FAEEE6" stroke-width="1.5" stroke-linecap="round" stroke-linejoin="round"/>
</g>
</svg>
