<svg width="32" height="33" viewBox="0 0 32 33" fill="none" xmlns="http://www.w3.org/2000/svg">
<path d="M20.6667 8.66735V4.66895" stroke="#FBFBFB" stroke-width="1.5" stroke-linecap="round" stroke-linejoin="round"/>
<path d="M24.6666 4.66899H20.6666" stroke="#FBFBFB" stroke-width="1.5" stroke-linecap="round" stroke-linejoin="round"/>
<path d="M4 16.669C4.00155 22.6803 8.45078 27.763 14.4091 28.56C20.3673 29.3569 25.996 25.6223 27.5773 19.8227C29.1587 14.0231 26.2048 7.94822 20.6667 5.61047" stroke="#FBFBFB" stroke-width="1.5" stroke-linecap="round" stroke-linejoin="round"/>
<path d="M13.9528 4.6219L13.953 4.6218C13.979 4.5987 14.0188 4.60108 14.042 4.62712C14.0651 4.65315 14.0627 4.69299 14.0367 4.71612C14.0107 4.73925 13.9708 4.73692 13.9477 4.71092C13.9245 4.68491 13.9268 4.64507 13.9528 4.6219" stroke="#FBFBFB" stroke-width="1.5" stroke-linecap="round" stroke-linejoin="round"/>
<path d="M8.61946 6.6219L8.61958 6.6218C8.64563 6.5987 8.68547 6.60108 8.70858 6.62712C8.73169 6.65315 8.72934 6.69299 8.70332 6.71612C8.6773 6.73925 8.63745 6.73692 8.61431 6.71092C8.59116 6.68491 8.59347 6.64507 8.61946 6.6219" stroke="#FBFBFB" stroke-width="1.5" stroke-linecap="round" stroke-linejoin="round"/>
<path d="M4.61946 11.2885L4.61958 11.2884C4.64563 11.2653 4.68547 11.2677 4.70858 11.2937C4.73169 11.3198 4.72934 11.3596 4.70332 11.3827C4.6773 11.4059 4.63745 11.4035 4.61431 11.3775C4.59116 11.3515 4.59347 11.3117 4.61946 11.2885" stroke="#FBFBFB" stroke-width="1.5" stroke-linecap="round" stroke-linejoin="round"/>
<path fill-rule="evenodd" clip-rule="evenodd" d="M15.5735 10.2939C15.7385 10.0526 16.0415 9.94698 16.3207 10.0334C16.6 10.1197 16.7904 10.378 16.7903 10.6703V14.9962H20.6656C20.9128 14.9962 21.1398 15.1331 21.2552 15.3518C21.3706 15.5705 21.3554 15.8351 21.2158 16.0392L16.4264 23.044C16.2614 23.2854 15.9585 23.391 15.6792 23.3046C15.3999 23.2183 15.2095 22.96 15.2096 22.6677V18.3418H11.3344C11.0871 18.3418 10.8601 18.2049 10.7447 17.9862C10.6294 17.7675 10.6445 17.5029 10.7841 17.2988L15.5735 10.2939Z" stroke="#FBFBFB" stroke-width="1.5" stroke-linecap="round" stroke-linejoin="round"/>
</svg>
