<svg xmlns="http://www.w3.org/2000/svg" width="32" height="33" viewBox="0 0 32 33" fill="none">
  <path d="M27.9312 5.67772C27.9169 5.43307 27.8133 5.20219 27.64 5.02891C27.4667 4.85563 27.2358 4.75201 26.9912 4.73772C17.4749 4.17897 9.85245 7.04397 6.60245 12.419C5.4759 14.2576 4.92077 16.3894 5.00745 18.544C5.0787 20.534 5.6587 22.544 6.7312 24.5252L4.29245 26.9627C4.10481 27.1504 3.99939 27.4049 3.99939 27.6702C3.99939 27.9356 4.1048 28.1901 4.29245 28.3777C4.48009 28.5654 4.73458 28.6708 4.99995 28.6708C5.26531 28.6708 5.5198 28.5654 5.70745 28.3777L8.14495 25.939C10.1249 27.0102 12.1362 27.5902 14.1249 27.6615C14.2641 27.6665 14.4029 27.669 14.5412 27.669C16.5559 27.6744 18.5324 27.1195 20.2499 26.0665C25.6249 22.8165 28.4912 15.1952 27.9312 5.67772ZM19.2187 24.3565C16.3749 26.079 13.0087 26.1065 9.62995 24.4527L20.7087 13.3752C20.8016 13.2823 20.8753 13.172 20.9256 13.0506C20.9759 12.9292 21.0018 12.7991 21.0018 12.6677C21.0018 12.5363 20.9759 12.4062 20.9256 12.2848C20.8753 12.1634 20.8016 12.0531 20.7087 11.9602C20.6158 11.8673 20.5055 11.7936 20.3841 11.7433C20.2627 11.693 20.1326 11.6672 20.0012 11.6672C19.8698 11.6672 19.7397 11.693 19.6183 11.7433C19.4969 11.7936 19.3866 11.8673 19.2937 11.9602L8.2162 23.044C6.56745 19.669 6.5912 16.294 8.31245 13.4552C11.0737 8.89647 17.6374 6.40022 25.9762 6.69772C26.2749 15.0302 23.7774 21.5952 19.2187 24.3565Z" fill="#FBFBFB"/>
</svg>