<svg xmlns="http://www.w3.org/2000/svg" width="32" height="33" viewBox="0 0 32 33" fill="none">
  <path d="M16 11.6689C15.0111 11.6689 14.0444 11.9622 13.2221 12.5116C12.3999 13.061 11.759 13.8419 11.3806 14.7555C11.0022 15.6692 10.9031 16.6745 11.0961 17.6444C11.289 18.6143 11.7652 19.5052 12.4645 20.2045C13.1637 20.9037 14.0546 21.3799 15.0245 21.5729C15.9945 21.7658 16.9998 21.6668 17.9134 21.2883C18.827 20.9099 19.6079 20.269 20.1573 19.4468C20.7068 18.6246 21 17.6579 21 16.6689C21 15.3429 20.4732 14.0711 19.5355 13.1334C18.5979 12.1957 17.3261 11.6689 16 11.6689ZM16 19.6689C15.4067 19.6689 14.8266 19.493 14.3333 19.1634C13.8399 18.8337 13.4554 18.3652 13.2284 17.817C13.0013 17.2688 12.9419 16.6656 13.0576 16.0837C13.1734 15.5017 13.4591 14.9672 13.8787 14.5476C14.2982 14.1281 14.8328 13.8423 15.4147 13.7266C15.9967 13.6108 16.5999 13.6702 17.1481 13.8973C17.6962 14.1244 18.1648 14.5089 18.4944 15.0022C18.8241 15.4956 19 16.0756 19 16.6689C19 17.4646 18.6839 18.2277 18.1213 18.7903C17.5587 19.3529 16.7956 19.6689 16 19.6689ZM30 7.66895H2C1.73478 7.66895 1.48043 7.7743 1.29289 7.96184C1.10536 8.14938 1 8.40373 1 8.66895V24.6689C1 24.9342 1.10536 25.1885 1.29289 25.3761C1.48043 25.5636 1.73478 25.6689 2 25.6689H30C30.2652 25.6689 30.5196 25.5636 30.7071 25.3761C30.8946 25.1885 31 24.9342 31 24.6689V8.66895C31 8.40373 30.8946 8.14938 30.7071 7.96184C30.5196 7.7743 30.2652 7.66895 30 7.66895ZM24.2062 23.6689H7.79375C7.45801 22.5334 6.84351 21.5 6.00623 20.6627C5.16895 19.8254 4.1355 19.2109 3 18.8752V14.4627C4.1355 14.127 5.16895 13.5125 6.00623 12.6752C6.84351 11.8379 7.45801 10.8044 7.79375 9.66895H24.2062C24.542 10.8044 25.1565 11.8379 25.9938 12.6752C26.8311 13.5125 27.8645 14.127 29 14.4627V18.8752C27.8645 19.2109 26.8311 19.8254 25.9938 20.6627C25.1565 21.5 24.542 22.5334 24.2062 23.6689ZM29 12.3402C27.8005 11.8244 26.8445 10.8684 26.3288 9.66895H29V12.3402ZM5.67125 9.66895C5.15549 10.8684 4.19945 11.8244 3 12.3402V9.66895H5.67125ZM3 20.9977C4.19945 21.5135 5.15549 22.4695 5.67125 23.6689H3V20.9977ZM26.3288 23.6689C26.8445 22.4695 27.8005 21.5135 29 20.9977V23.6689H26.3288Z" fill="#FBFBFB"/>
</svg>