<svg xmlns="http://www.w3.org/2000/svg" width="32" height="33" viewBox="0 0 32 33" fill="none">
  <path d="M24.7625 8.49392C24.0391 6.76673 22.8214 5.29184 21.2624 4.25456C19.7034 3.21728 17.8726 2.66388 16 2.66388C14.1275 2.66388 12.2967 3.21728 10.7377 4.25456C9.17863 5.29184 7.96093 6.76673 7.23754 8.49392C5.68074 9.21485 4.36142 10.3642 3.43391 11.8075C2.5064 13.2508 2.00905 14.9283 2.00004 16.6439C1.98629 21.4964 5.92004 25.5439 10.7675 25.6689C12.2339 25.7072 13.6873 25.3848 15 24.7302V29.6689C15 29.9341 15.1054 30.1885 15.2929 30.376C15.4805 30.5636 15.7348 30.6689 16 30.6689C16.2653 30.6689 16.5196 30.5636 16.7071 30.376C16.8947 30.1885 17 29.9341 17 29.6689V24.7302C18.2423 25.3497 19.6119 25.6711 21 25.6689H21.2325C26.08 25.5439 30.0138 21.4989 30 16.6464C29.9917 14.9304 29.4946 13.2522 28.567 11.8084C27.6395 10.3646 26.3198 9.21491 24.7625 8.49392ZM21.1813 23.6689C19.7371 23.7092 18.3163 23.2985 17.1163 22.4939C17.0771 22.4689 17.0384 22.4452 17 22.4227V17.2864L22.4475 14.5639C22.5651 14.5052 22.6699 14.4238 22.756 14.3245C22.8421 14.2253 22.9078 14.11 22.9493 13.9854C22.9909 13.8607 23.0075 13.7291 22.9982 13.598C22.9888 13.4669 22.9538 13.339 22.895 13.2214C22.8363 13.1039 22.7549 12.9991 22.6557 12.913C22.5564 12.8269 22.4411 12.7612 22.3165 12.7196C22.1918 12.6781 22.0602 12.6615 21.9291 12.6708C21.798 12.6801 21.6701 12.7152 21.5525 12.7739L17 15.0514V11.6689C17 11.4037 16.8947 11.1494 16.7071 10.9618C16.5196 10.7743 16.2653 10.6689 16 10.6689C15.7348 10.6689 15.4805 10.7743 15.2929 10.9618C15.1054 11.1494 15 11.4037 15 11.6689V18.0514L10.4475 15.7739C10.2102 15.6552 9.93537 15.6357 9.68361 15.7196C9.43184 15.8036 9.22372 15.9841 9.10504 16.2214C8.98635 16.4588 8.96682 16.7336 9.05074 16.9854C9.13467 17.2371 9.31517 17.4452 9.55254 17.5639L15 20.2864V22.4189C14.9609 22.4414 14.9221 22.4652 14.8838 22.4902C13.6839 23.2954 12.2633 23.7073 10.8188 23.6689C9.23782 23.6294 7.71681 23.0558 6.50355 22.0414C5.29029 21.027 4.45627 19.6316 4.13738 18.0826C3.81848 16.5337 4.03349 14.9224 4.74739 13.5112C5.46128 12.1 6.63199 10.9722 8.06879 10.3114C8.5232 10.1032 8.88249 9.73144 9.07504 9.27017C9.64584 7.906 10.6072 6.74101 11.8382 5.92166C13.0692 5.1023 14.515 4.66515 15.9938 4.66515C17.4726 4.66515 18.9183 5.1023 20.1494 5.92166C21.3804 6.74101 22.3417 7.906 22.9125 9.27017C23.1051 9.73144 23.4644 10.1032 23.9188 10.3114C25.3556 10.9722 26.5263 12.1 27.2402 13.5112C27.9541 14.9224 28.1691 16.5337 27.8502 18.0826C27.5313 19.6316 26.6973 21.027 25.484 22.0414C24.2708 23.0558 22.7498 23.6294 21.1688 23.6689H21.1813Z" fill="white"/>
</svg>