<svg xmlns="http://www.w3.org/2000/svg" width="32" height="33" viewBox="0 0 32 33" fill="none">
  <path d="M2.6665 27.3356C6.3484 23.6537 12.3179 23.6537 15.9998 27.3356" stroke="white" stroke-width="1.5" stroke-linecap="round" stroke-linejoin="round"/>
  <path d="M8.01286 20.6689V24.6667" stroke="white" stroke-width="1.5" stroke-linecap="round" stroke-linejoin="round"/>
  <path fill-rule="evenodd" clip-rule="evenodd" d="M7.54142 10.1276L4.20942 13.4596C4.01877 13.6503 3.96174 13.937 4.06493 14.1861C4.16811 14.4352 4.41119 14.5977 4.68082 14.5977H11.3448C11.6145 14.5977 11.8575 14.4352 11.9607 14.1861C12.0639 13.937 12.0069 13.6503 11.8162 13.4596L8.48422 10.1276C8.22388 9.86729 7.80177 9.86729 7.54142 10.1276Z" stroke="white" stroke-width="1.5" stroke-linecap="round" stroke-linejoin="round"/>
  <path d="M28 22.0023V6.00232H24V8.22455" stroke="white" stroke-width="1.5" stroke-linecap="round" stroke-linejoin="round"/>
  <path d="M19.3335 22.0023V16.6689H23.3335V22.0023" stroke="white" stroke-width="1.5" stroke-linecap="round" stroke-linejoin="round"/>
  <path d="M29.3335 22.0022H17.3335" stroke="white" stroke-width="1.5" stroke-linecap="round" stroke-linejoin="round"/>
  <path d="M16 10.4463L21.3333 6.00232L29.3333 12.669" stroke="white" stroke-width="1.5" stroke-linecap="round" stroke-linejoin="round"/>
  <path d="M6.75805 14.5977L2.89656 19.1683C2.66741 19.4395 2.61647 19.819 2.76598 20.141C2.9155 20.463 3.2383 20.669 3.59333 20.6689H12.4324C12.7874 20.6689 13.1101 20.4629 13.2596 20.141C13.4091 19.819 13.3582 19.4395 13.1291 19.1684L9.26757 14.5977" stroke="white" stroke-width="1.5" stroke-linecap="round" stroke-linejoin="round"/>
</svg>