<svg xmlns="http://www.w3.org/2000/svg" width="32" height="33" viewBox="0 0 32 33" fill="none">
  <path d="M16 4.66895C22.6427 4.66895 28 10.0263 28 16.6689C28 23.3116 22.6427 28.6689 16 28.6689" stroke="white" stroke-width="1.5" stroke-linecap="round" stroke-linejoin="round"/>
  <path d="M16 28.6689C9.35733 28.6689 4 23.3116 4 16.6689C4 10.0263 9.35733 4.66895 16 4.66895" stroke="white" stroke-width="1.5" stroke-linecap="round" stroke-linejoin="round"/>
  <path fill-rule="evenodd" clip-rule="evenodd" d="M13.5575 6.08231C9.70415 12.5156 9.70415 20.8236 13.5575 27.257C14.6855 29.141 17.3161 29.141 18.4441 27.257C22.2975 20.8236 22.2975 12.5156 18.4441 6.08231C17.3148 4.19831 14.6855 4.19831 13.5575 6.08231Z" stroke="white" stroke-width="1.5" stroke-linecap="round" stroke-linejoin="round"/>
  <path d="M5.34668 11.1462C11.8693 13.1609 20.1307 13.1609 26.652 11.1462" stroke="white" stroke-width="1.5" stroke-linecap="round" stroke-linejoin="round"/>
  <path d="M26.6535 22.1917C20.1308 20.177 11.8695 20.177 5.34814 22.1917" stroke="white" stroke-width="1.5" stroke-linecap="round" stroke-linejoin="round"/>
</svg>